# xmcd
#
# Track frame offsets:
# 150
# 18229
# 33870
# 56237
# 72373
# 87788
# 92893
# 101423
# 111011
# 113460
# 123563
# 132841
# 147960
# 164082
# 179588
#
# Disc length: 2578 seconds
#
#
# Revision: 0
# Processed by: cddbd v1.5.2PL0 Copyright (c) Steve Scherf et al.
# Submitted via: FreeRIP 2.00 
#
DISCID=cd0a100f
DTITLE=Titzel - tr
DYEAR=1900
DGENRE=Acid Punk
TTITLE0=e
TTITLE1=w
TTITLE2=a
TTITLE3=a
TTITLE4=s
TTITLE5=we
TTITLE6=sd
TTITLE7=f
TTITLE8=w
TTITLE9=se
TTITLE10=w
TTITLE11=d
TTITLE12=g
TTITLE13=v
TTITLE14=a
EXTD=ae
EXTT0=
EXTT1=
EXTT2=
EXTT3=
EXTT4=
EXTT5=
EXTT6=
EXTT7=
EXTT8=
EXTT9=
EXTT10=
EXTT11=
EXTT12=
EXTT13=
EXTT14=
PLAYORDER=
